Coordinates
version=1
nRows=9
nColumns=63
inDegrees=yes

Units are S.I. units (second, meters, Newtons, ...)
If the header above contains a line with 'inDegrees', this indicates whether rotational values are in degrees (yes) or radians (no).

endheader
time	pelvis_tilt	pelvis_list	pelvis_rotation	pelvis_tx	pelvis_ty	pelvis_tz	hip_flexion_r	hip_adduction_r	hip_rotation_r	knee_angle_r	knee_angle_r_beta	ankle_angle_r	subtalar_angle_r	mtp_angle_r	hip_flexion_l	hip_adduction_l	hip_rotation_l	knee_angle_l	knee_angle_l_beta	ankle_angle_l	subtalar_angle_l	mtp_angle_l	L5_S1_Flex_Ext	L5_S1_Lat_Bending	L5_S1_axial_rotation	L4_L5_Flex_Ext	L4_L5_Lat_Bending	L4_L5_axial_rotation	L3_L4_Flex_Ext	L3_L4_Lat_Bending	L3_L4_axial_rotation	L2_L3_Flex_Ext	L2_L3_Lat_Bending	L2_L3_axial_rotation	L1_L2_Flex_Ext	L1_L2_Lat_Bending	L1_L2_axial_rotation	L1_T12_Flex_Ext	L1_T12_Lat_Bending	L1_T12_axial_rotation	Abs_r3	Abs_r2	Abs_r1	Abs_t1	Abs_t2	neck_flexion	neck_bending	neck_rotation	arm_flex_r	arm_add_r	arm_rot_r	elbow_flex_r	pro_sup_r	wrist_flex_r	wrist_dev_r	arm_flex_l	arm_add_l	arm_rot_l	elbow_flex_l	pro_sup_l	wrist_flex_l	wrist_dev_l
      2.00000000	      2.05926318	     -0.48192447	     88.66388808	      0.13341978	      0.65337743	      0.76065831	      3.62314225	     -0.62119889	     -8.84281859	     14.43583159	      0.25195279	     40.27720950	     12.93052427	      0.00000000	      0.77086306	      0.26971780	     -1.83538587	      6.25724035	      0.10920945	     36.46616852	      1.47186049	      0.00000000	      0.00999765	      0.36138600	     -0.02895842	      0.01856663	      0.48064338	     -0.03076833	      0.01642514	      0.87867391	     -0.03076833	      0.01142631	      0.87867391	     -0.02533862	      0.00928382	      0.73693832	     -0.02352872	      0.00571266	      0.55978691	     -0.02171882	      0.07141221	      4.08807067	     -0.16105806	      0.00000000	      0.00000000	     22.09809634	     -2.04901726	      9.98328726	     -2.56811303	    -14.39817449	     35.77110090	     28.66705404	     82.40536261	     -7.39181145	      0.35216689	      0.66293609	    -14.13988023	     46.72680295	     26.37812022	     84.02202661	    -15.80064897	      2.78748194
      2.01666667	      2.13604929	     -0.47607028	     88.60430713	      0.13441694	      0.65371231	      0.75927489	      3.59874178	     -0.45482354	     -8.83293321	     14.43807799	      0.25199200	     40.38625679	     12.97178120	      0.00000000	      0.60329198	      0.12787810	     -1.85376457	      6.16012086	      0.10751439	     36.36047662	      1.43935757	      0.00000000	      0.01751912	      0.34844474	     -0.03467008	      0.03253476	      0.46343151	     -0.03683697	      0.02878217	      0.84720855	     -0.03683697	      0.02002261	      0.84720855	     -0.03033632	      0.01626826	      0.71054852	     -0.02816944	      0.01001043	      0.53974091	     -0.02600256	      0.12513735	      3.94167663	     -0.19282461	      0.00000000	      0.00000000	     22.00225805	     -2.05715468	     10.02330900	     -2.77752813	    -14.26350700	     35.75783838	     28.70021131	     82.35113651	     -7.36744916	      0.40378707	      0.66885978	    -14.26456844	     46.69416765	     26.03386148	     84.03420378	    -15.90806798	      2.82406077
      2.03333333	      2.35167692	     -0.18238844	     87.95207391	      0.13485457	      0.65478791	      0.75623170	      3.01892964	     -0.24475205	     -8.74614591	     14.07982870	      0.24573937	     40.41451800	     13.82573546	      0.00000000	     -0.94389917	      0.17034052	      1.57068010	      4.21491728	      0.07356418	     34.66750055	     -3.52749648	      0.00000000	      0.02126548	      0.37133613	      0.07011479	      0.03949212	      0.49387705	      0.07449696	      0.03493705	      0.90286665	      0.07449696	      0.02430431	      0.90286665	      0.06135044	      0.01974712	      0.75722863	      0.05696826	      0.01215109	      0.57519966	      0.05258609	      0.15189717	      4.20062851	      0.38995741	      0.00000000	      0.00000000	     20.74611436	     -2.07880930	     10.21064062	     -3.60349836	    -14.26242561	     33.77231613	     29.31181419	     81.16176626	     -6.71493139	      1.28813001	      1.02919427	    -13.60262809	     48.89638249	     24.27565922	     83.33725951	    -18.30798666	      1.42069045
      2.05000000	      2.54654284	      0.04403268	     87.99506553	      0.13523162	      0.65562003	      0.75378125	      2.47924097	      0.03132855	     -8.74754739	     13.70084550	      0.23912486	     40.36614655	     13.86924280	      0.00000000	     -1.73138910	     -0.04465819	      1.74461026	      3.47056911	      0.06057286	     34.36007658	     -3.50792292	      0.00000000	      0.02503170	      0.37837230	     -0.00945580	      0.04648637	      0.50323515	     -0.01004678	      0.04112458	      0.91997440	     -0.01004678	      0.02860873	      0.91997440	     -0.00827382	      0.02324444	      0.77157678	     -0.00768284	      0.01430311	      0.58609869	     -0.00709185	      0.17879892	      4.28022308	     -0.05259031	      0.00000000	      0.00000000	     19.84150266	     -2.25096203	     10.23547397	     -3.87126564	    -14.17916557	     33.32218100	     29.57193476	     80.45748893	     -6.44712721	      1.42832657	      0.89710759	    -13.41517527	     48.39630653	     23.92394618	     83.47802714	    -19.20003429	      1.07324922
      2.06666667	      2.73397274	      0.26661008	     88.19574861	      0.13532384	      0.65628852	      0.75150459	      1.98537323	      0.27208758	     -8.91749892	     13.44101942	      0.23459004	     40.36021501	     13.88021317	      0.00000000	     -2.34764816	     -0.23420773	      2.85324734	      3.00918437	      0.05252018	     34.02113607	     -4.59998373	      0.00000000	      0.02722929	      0.38502507	     -0.13432138	      0.05056752	      0.51208334	     -0.14271647	      0.04473500	      0.93614994	     -0.14271647	      0.03112036	      0.93614994	     -0.11753121	      0.02528512	      0.78514311	     -0.10913612	      0.01555882	      0.59640383	     -0.10074104	      0.19449610	      4.35548055	     -0.74705524	      0.00000000	      0.00000000	     18.97468549	     -2.63337588	     10.28652153	     -3.92018280	    -14.19453110	     33.74255810	     29.73846592	     79.13526177	     -6.18107211	      1.52584239	      0.54467647	    -13.25723112	     46.84870999	     24.16301753	     84.53712047	    -20.91800827	      0.78967453
      2.08333333	      2.96156599	      0.49030494	     88.42369159	      0.13522822	      0.65691742	      0.74943846	      1.44502252	      0.55824591	     -9.07878364	     13.09270232	      0.22851076	     40.24971188	     13.83869757	      0.00000000	     -2.92927473	     -0.48715692	      3.12736153	      2.57409013	      0.04492635	     33.87706846	     -4.57688230	      0.00000000	      0.02647602	      0.39978423	     -0.22513848	      0.04916862	      0.53171302	     -0.23920964	      0.04349746	      0.97203537	     -0.23920964	      0.03025945	      0.97203537	     -0.19699617	      0.02458563	      0.81523999	     -0.18292502	      0.01512840	      0.61926577	     -0.16885386	      0.18911558	      4.52243912	     -1.25215270	      0.00000000	      0.00000000	     18.18467884	     -3.50298978	     10.17844825	     -4.08201248	    -14.18589691	     33.76225763	     29.87376405	     78.91680403	     -6.07582157	      1.53867893	      0.57504934	    -13.14937547	     46.53406866	     24.42469702	     85.05056582	    -22.13967611	      0.77756804
      2.10000000	      3.08358844	      0.66710949	     88.50240581	      0.13525751	      0.65736742	      0.74787643	      1.16478459	      0.69028203	     -9.15620276	     13.11236926	      0.22885402	     40.29096132	     13.79638526	      0.00000000	     -3.27112747	     -0.61998171	      3.22575134	      2.47952543	      0.04327588	     33.89950506	     -4.58371655	      0.00000000	      0.02075689	      0.40346601	     -0.26988563	      0.03854762	      0.53660979	     -0.28675348	      0.03410149	      0.98098725	     -0.28675348	      0.02372305	      0.98098725	     -0.23614992	      0.01927485	      0.82274788	     -0.21928207	      0.01186049	      0.62496884	     -0.20241422	      0.14826437	      4.56408816	     -1.50102289	      0.00000000	      0.00000000	     17.45483365	     -4.37466741	     10.37699277	     -4.19212601	    -14.15012152	     33.89789078	     29.96105477	     78.97058267	     -6.04385818	      1.42640615	      0.69980098	    -13.18701268	     46.62291309	     24.82994377	     85.46945534	    -22.66146663	      0.69585828
      2.11666667	      3.19150032	      0.75854373	     88.67343019	      0.13520784	      0.65772498	      0.74631502	      0.84507335	      0.83958453	     -9.27644295	     12.87816287	      0.22476634	     40.24798979	     13.74493014	      0.00000000	     -3.58552559	     -0.74956874	      3.41236216	      2.22698038	      0.03886814	     33.84509049	     -4.56189001	      0.00000000	      0.02246381	      0.40557409	     -0.35134670	      0.04171754	      0.53941353	     -0.37330586	      0.03690579	      0.98611283	     -0.37330586	      0.02567389	      0.98611283	     -0.30742836	      0.02085989	      0.82704668	     -0.28546919	      0.01283582	      0.62823426	     -0.26351002	      0.16045674	      4.58793517	     -1.95408491	      0.00000000	      0.00000000	     17.11795567	     -5.95557943	     10.55529369	     -4.25508369	    -14.16302207	     34.25224984	     30.11381473	     79.24537420	     -5.99975112	      1.12201149	      0.73171226	    -13.19241503	     47.20886410	     25.02177074	     86.41700927	    -23.46191437	      0.79522509
      2.13333333	      3.39499466	      0.84028347	     89.04433740	      0.13482230	      0.65816150	      0.74577317	      0.61570523	      1.07634540	     -9.66198043	     12.70158786	      0.22168453	     40.09809632	     13.69421299	      0.00000000	     -3.70691654	     -0.97963157	      4.63934061	      2.14860271	      0.03750019	     33.63022478	     -5.69476481	      0.00000000	      0.00609464	      0.40883571	     -0.37608822	      0.01131835	      0.54375150	     -0.39959374	      0.01001288	      0.99404315	     -0.39959374	      0.00696556	      0.99404315	     -0.32907720	      0.00565948	      0.83369779	     -0.30557168	      0.00348248	      0.63328652	     -0.28206617	      0.04353338	      4.62483135	     -2.09168987	      0.00000000	      0.00000000	     17.31318750	     -7.66545663	      9.51583881	     -4.37567156	    -14.19829598	     34.38358166	     30.33240154	     79.80562411	     -6.21779736	      0.53498674	      2.17881479	    -13.15419198	     54.06258060	     24.03099750	     86.82389139	    -26.00641507	      2.57879641
